HIERARCHY
ROOT Hips
{
	OFFSET	0.00	0.00	0.00
	CHANNELS 6 Xposition Yposition Zposition Zrotation Xrotation Yrotation
	JOINT LeftUpLeg
	{
		OFFSET	 0.126116	-0.014019	-0.065224
		CHANNELS 3 Zrotation Xrotation Yrotation
		JOINT LeftLeg
		{
			OFFSET	 0.000000	 0.000000	 0.569914
			CHANNELS 3 Zrotation Xrotation Yrotation
			JOINT LeftFoot
			{
				OFFSET	 0.000000	 0.000000	 0.544423
				CHANNELS 3 Zrotation Xrotation Yrotation
				JOINT LeftToeBase
				{
					OFFSET	 0.000000	 0.000000	 0.207117
					CHANNELS 3 Zrotation Xrotation Yrotation
					End Site
					{
						OFFSET	 0.000000	 0.000000	 0.207117
					}
				}
			}
		}
	}
	JOINT RightUpLeg
	{
		OFFSET	-0.124023	-0.008373	-0.065224
		CHANNELS 3 Zrotation Xrotation Yrotation
		JOINT RightLeg
		{
			OFFSET	 0.000000	 0.000000	 0.570047
			CHANNELS 3 Zrotation Xrotation Yrotation
			JOINT RightFoot
			{
				OFFSET	 0.000000	 0.000000	 0.544354
				CHANNELS 3 Zrotation Xrotation Yrotation
				JOINT RightToeBase
				{
					OFFSET	 0.000000	 0.000000	 0.207540
					CHANNELS 3 Zrotation Xrotation Yrotation
					End Site
					{
						OFFSET	 0.000000	 0.000000	 0.207540
					}
				}
			}
		}
	}
	JOINT Spine
	{
		OFFSET	 0.000184	-0.007763	 0.117403
		CHANNELS 3 Zrotation Xrotation Yrotation
		JOINT Spine1
		{
			OFFSET	 0.000000	 0.000000	 0.137269
			CHANNELS 3 Zrotation Xrotation Yrotation
			JOINT Spine2
			{
				OFFSET	 0.000000	 0.000000	 0.156879
				CHANNELS 3 Zrotation Xrotation Yrotation
				JOINT LeftShoulder
				{
					OFFSET	 0.080501	-0.002496	 0.160144
					CHANNELS 3 Zrotation Xrotation Yrotation
					JOINT LeftArm
					{
						OFFSET	 0.000000	 0.000000	 0.164363
						CHANNELS 3 Zrotation Xrotation Yrotation
						JOINT LeftForeArm
						{
							OFFSET	 0.000000	 0.000000	 0.364576
							CHANNELS 3 Zrotation Xrotation Yrotation
							JOINT LeftHand
							{
								OFFSET	 0.000000	 0.000000	 0.360812
								CHANNELS 3 Zrotation Xrotation Yrotation
								JOINT LeftHandIndex1
								{
									OFFSET	 0.000000	 0.000000	 0.086006
									CHANNELS 3 Zrotation Xrotation Yrotation
									JOINT LeftHandIndex2
									{
										OFFSET	 0.000000	 0.000000	 0.047236
										CHANNELS 3 Zrotation Xrotation Yrotation
										JOINT LeftHandIndex3
										{
											OFFSET	-0.004284	-0.000551	 0.038166
											CHANNELS 3 Zrotation Xrotation Yrotation
											End Site
											{
												OFFSET	-0.004284	-0.000551	 0.038166
											}
										}
									}
								}
							}
						}
					}
				}
				JOINT Neck
				{
					OFFSET	 0.000000	 0.000000	 0.176489
					CHANNELS 3 Zrotation Xrotation Yrotation
					JOINT Head
					{
						OFFSET	 0.000000	-0.001747	 0.077940
						CHANNELS 3 Zrotation Xrotation Yrotation
						End Site
						{
							OFFSET	 0.000000	-0.001747	 0.077940
						}
					}
				}
				JOINT RightShoulder
				{
					OFFSET	-0.080363	 0.000306	 0.159706
					CHANNELS 3 Zrotation Xrotation Yrotation
					JOINT RightArm
					{
						OFFSET	 0.000000	 0.000000	 0.164196
						CHANNELS 3 Zrotation Xrotation Yrotation
						JOINT RightForeArm
						{
							OFFSET	 0.000000	 0.000000	 0.365611
							CHANNELS 3 Zrotation Xrotation Yrotation
							JOINT RightHand
							{
								OFFSET	 0.000000	 0.000000	 0.360648
								CHANNELS 3 Zrotation Xrotation Yrotation
								JOINT RightHandIndex1
								{
									OFFSET	 0.000000	 0.000000	 0.069977
									CHANNELS 3 Zrotation Xrotation Yrotation
									JOINT RightHandIndex2
									{
										OFFSET	 0.000000	 0.000000	 0.052305
										CHANNELS 3 Zrotation Xrotation Yrotation
										JOINT RightHandIndex3
										{
											OFFSET	 0.009002	-0.000782	 0.042196
											CHANNELS 3 Zrotation Xrotation Yrotation
											End Site
											{
												OFFSET	 0.009002	-0.000782	 0.042196
											}
										}
									}
								}
							}
						}
					}
				}
			}
		}
	}
}
MOTION
Frames:    5
Frame Time: 0.03333334
 7.341288	 5.063980	-0.475207	-110.675200	 4.072825	-0.999918	 9.538532	 17.945680	-176.281300	-5.826493	-11.624710	 1.534554	-12.286920	 89.072960	 15.732700	-2.281485	 41.392190	-0.313603	 4.405668	-45.774380	-179.912900	-0.343756	-42.540420	 3.528159	-176.527200	 84.232760	-178.864200	 2.394083	 25.949520	-0.051942	-2.177030	 1.980721	 2.725327	-2.882727	-5.641883	 0.909745	-3.004521	-9.638157	-1.119005	-91.776180	 78.527400	 180.000000	 42.246470	 62.187980	-57.535440	-6.493155	-4.577582	-26.958330	 4.997736	-2.112701	-5.363885	-3.812334	 37.924440	-2.927599	-2.450526	 36.184240	 0.754587	-1.378229	 35.397820	-2.634230	-0.240941	 4.974045	-2.315086	-0.602006	-23.521390	-2.710895	 89.782090	 78.203890	-180.000000	-30.523240	 73.118670	 34.146580	 3.910107	-6.495136	 19.808560	-14.360950	-3.281663	 9.540052	 6.437017	 35.671460	-0.771858	 2.830251	 35.756010	-7.813440	-2.350882	 35.473990	 5.254307
 7.295445	 5.081491	-0.475844	-109.736900	 4.284948	-1.308445	 8.945560	 19.878090	-176.576600	-5.138039	-11.623300	 1.545424	-0.804948	 88.254930	 4.313377	-2.240653	 44.352760	-0.399158	 5.000608	-45.205300	-178.974600	 0.379516	-42.192670	 4.239047	-175.530200	 86.055380	-179.124500	 2.375540	 30.260270	 0.041021	-2.518367	 1.727487	 2.554531	-3.126674	-5.764167	 0.707218	-3.113219	-9.577721	-1.216089	-91.776180	 78.527400	-180.000000	 43.888570	 62.994270	-59.053500	-6.281968	-4.516016	-24.741790	 5.590407	-2.135726	-5.357154	-3.812334	 37.924440	-2.927599	-2.450526	 36.184240	 0.754587	-1.378229	 35.397820	-2.634230	-0.439199	 5.200361	-2.278913	-0.745626	-23.771290	-2.661515	 89.782090	 78.203830	-180.000000	-29.245540	 73.674240	 32.196340	 3.980401	-6.346783	 19.027870	-14.677320	-3.295033	 9.529839	 6.437017	 35.671460	-0.771858	 2.830251	 35.756010	-7.813440	-2.350882	 35.473990	 5.254307
 7.228693	 5.108940	-0.478287	-108.811400	 4.510174	-1.487302	 8.463714	 22.547700	-177.562800	-4.002516	-11.615110	 1.606516	 4.514250	 85.097030	-0.579357	-2.144803	 49.640090	-0.572551	 5.124155	-43.716180	-178.563000	 3.087165	-44.156400	 6.443028	-174.551300	 89.550190	-178.438000	 2.378309	 29.727100	 0.029225	-3.089663	 1.272810	 1.959563	-3.363430	-6.064715	 0.405225	-3.068595	-9.564227	-1.340772	-91.776180	 78.527400	-180.000000	 45.248510	 65.066410	-59.334030	-6.750459	-4.348246	-21.817300	 6.404252	-2.181425	-5.342112	-3.812334	 37.924440	-2.927599	-2.450526	 36.184240	 0.754587	-1.378229	 35.397820	-2.634230	-0.691285	 4.904181	-2.138582	-0.885123	-23.306520	-2.361146	 89.782120	 78.203930	 180.000000	-27.079760	 74.491630	 29.192560	 4.382671	-6.171659	 18.298310	-15.034600	-3.312021	 9.516085	 6.437017	 35.671460	-0.771858	 2.830251	 35.756010	-7.813440	-2.350882	 35.473990	 5.254307
 7.166664	 5.135335	-0.475155	-108.482900	 4.381382	-1.319022	 8.587390	 24.839800	-178.820100	-3.179847	-11.602570	 1.695321	 4.996526	 79.242600	-0.282060	-2.061455	 53.099540	-0.705198	 3.956758	-42.147120	-179.406800	 6.491455	-46.379810	 8.684451	 5.091237	 86.959920	 3.302343	 2.371580	 30.976710	 0.057021	-3.391414	 0.772479	 1.036989	-3.249984	-6.327722	 0.111496	-2.999564	-9.651394	-1.249918	-91.776180	 78.527400	-180.000000	 44.974790	 67.635140	-57.314500	-7.983521	-4.135238	-19.755350	 6.945352	-2.222210	-5.327301	-3.812334	 37.924440	-2.927599	-2.450526	 36.184240	 0.754587	-1.378229	 35.397820	-2.634230	-0.912749	 4.773075	-1.948018	-0.974347	-22.920930	-1.944090	 89.782070	 78.203930	-180.000000	-24.975060	 75.072010	 26.304470	 4.870226	-6.013828	 17.937160	-15.194200	-3.319726	 9.510359	 6.437017	 35.671460	-0.771858	 2.830251	 35.756010	-7.813440	-2.350882	 35.473990	 5.254307
 7.090903	 5.169412	-0.467422	-108.319000	 4.259734	-1.401631	 9.065890	 27.214600	-179.960200	-3.563664	-11.612430	 1.625264	 4.084509	 67.744140	 1.110978	-2.075326	 52.576570	-0.683941	 3.415731	-39.660640	 179.737400	 5.967839	-48.444880	 8.394669	 4.970669	 85.586880	 2.485303	 2.381845	 29.003490	 0.013352	-3.401825	-0.289467	 0.675241	-2.831590	-6.407964	-0.095581	-3.044831	-9.337659	-0.949563	-91.776180	 78.527400	 180.000000	 42.412190	 70.679510	-51.829280	-10.236190	-3.759194	-18.511940	 6.795654	-2.250010	-5.319933	-3.812334	 37.924440	-2.927599	-2.450526	 36.184240	 0.754587	-1.378229	 35.397820	-2.634230	-0.968171	 4.681941	-1.867768	-0.955409	-22.174600	-1.582474	 89.782090	 78.203830	-180.000000	-24.137470	 75.455400	 25.062050	 5.256341	-5.875422	 17.820890	-15.356200	-3.328496	 9.503091	 6.437017	 35.671460	-0.771858	 2.830251	 35.756010	-7.813440	-2.350882	 35.473990	 5.254307
